<?xml version="1.0" encoding="utf-8"?>
<!-- Generator: Adobe Illustrator 17.1.0, SVG Export Plug-In . SVG Version: 6.00 Build 0)  -->
<!DOCTYPE svg PUBLIC "-//W3C//DTD SVG 1.1//EN" "http://www.w3.org/Graphics/SVG/1.1/DTD/svg11.dtd">
<svg version="1.1" id="iTunes-AppStore" xmlns="http://www.w3.org/2000/svg" xmlns:xlink="http://www.w3.org/1999/xlink" x="0px"
	 y="0px" viewBox="0 0 1010 1010" enable-background="new 0 0 1010 1010" xml:space="preserve">
<linearGradient id="itunes-appstore-back_1_" gradientUnits="userSpaceOnUse" x1="505" y1="1010" x2="505" y2="-1.257285e-08">
	<stop  offset="0" style="stop-color:#2769F1"/>
	<stop  offset="1" style="stop-color:#02ADEF"/>
</linearGradient>
<path id="itunes-appstore-back" fill="url(#itunes-appstore-back_1_)" d="M1010,783.4561C1010,908.0625,908.7705,1010,785.0664,1010
	H224.9419C101.2124,1010,0,908.0625,0,783.4561V226.5435C0,101.9458,101.2124,0,224.9419,0h560.1245
	C908.7705,0,1010,101.9458,1010,226.5435V783.4561z"/>
<g id="itunes-appstore-itunes-appstore">
	<g>
		<g>
			<polygon fill="#FFFFFF" points="240.1162,537.1777 314.3184,537.1777 347.3984,479.0015 240.1162,479.0015 			"/>
			<polygon fill="#FFFFFF" points="670.1299,479.0015 703.7666,537.1777 769.875,537.1777 769.875,479.0015 			"/>
			<polygon fill="#FFFFFF" points="568.5977,479.0015 449.7402,479.0015 416.6523,537.1777 602.2246,537.1777 			"/>
		</g>
		<path fill-rule="evenodd" clip-rule="evenodd" fill="#FFFFFF" d="M661.084,601.542c0,0-17.1797,31.6299,42.9014,71.3271
			c0,0,18.2343,11.8028,18.2343,23.0655c0,0,6.4406,23.5957,15.0313,3.7509c0,0,17.6943-79.9179-12.8731-105.663
			c0,0-11.2627-13.3955-25.7451-15.545L661.084,601.542z"/>
		<path fill-rule="evenodd" clip-rule="evenodd" fill="#FFFFFF" d="M289.7529,609.8877l-22.5591,78.333
			c0,0-8.3544,27.7266,12.0972,9.3066c0.7251-0.6572,1.4839-1.3652,2.2764-2.1406c23.3174-22.5508,57.7549-55.0156,57.7549-55.0156
			s2.1411-5.4287,0.9609-7.5449c-1.1885-2.1154,1.1802,2.1161,1.1802,2.1161l-45.4888-26.2764
			C295.9746,608.666,289.0869,606.1445,289.7529,609.8877z"/>
		<g>
			<polygon fill-rule="evenodd" clip-rule="evenodd" fill="#FFFFFF" points="417.7563,384.2549 417.7563,384.2461 
				417.7563,384.2461 400.7188,414.1904 294.9375,600.2266 348.2158,630.5254 357.7422,613.7744 357.7588,613.7402 449.6309,452.21 
				454.0059,444.4883 471.0435,414.5527 			"/>
			<path fill-rule="evenodd" clip-rule="evenodd" fill="#FFFFFF" d="M487.3643,346.791l-19.7266-11.2119
				c-9.2227-5.252-21.084-1.9893-26.3272,7.2412l-19.3388,33.999l0.6152-1.0791l0,0l0,0l20.0469,11.3975l33.2402,18.9004l0,0
				l0.0083,0.0088l18.7232-32.9365C499.8491,363.8877,496.5869,352.043,487.3643,346.791z"/>
		</g>
		<g>
			<path fill-rule="evenodd" clip-rule="evenodd" fill="#FFFFFF" d="M670.4502,508.5918l-106.8691-184.874l-4.2403-7.3682
				l-30.2978-52.4267c-5.3282-9.189-17.2149-12.3672-26.3867-7.0562l-19.6592,11.3638
				c-9.1719,5.3281-12.3496,17.1894-7.0474,26.3867l135.6665,234.6699l5.7578,9.9815L670.4502,508.5918z"/>
			<polygon fill-rule="evenodd" clip-rule="evenodd" fill="#FFFFFF" points="694.4678,550.127 694.4424,550.0928 675.0869,516.6084 
				622.0449,547.2852 622.0449,547.2852 622.0273,547.2852 651.0439,597.4961 704.1113,566.8262 			"/>
		</g>
	</g>
	<g>
		<path fill="#FFFFFF" d="M504.9999,113.6218c216.1496,0,391.37,175.2204,391.37,391.3782c0,216.1494-175.2204,391.37-391.37,391.37
			c-216.1576,0-391.3782-175.2206-391.3782-391.37C113.6217,288.8422,288.8423,113.6218,504.9999,113.6218 M504.9999,63.1218
			c-59.6321,0-117.5067,11.6898-172.0163,34.7448c-52.625,22.2578-99.8761,54.1115-140.4409,94.6763
			c-40.5648,40.5646-72.4185,87.8159-94.6763,140.4409C74.8115,387.493,63.1217,445.3678,63.1217,505
			c0,59.6304,11.6898,117.5035,34.745,172.012c22.258,52.6239,54.1117,99.8741,94.6763,140.4382
			c40.5648,40.5641,87.8159,72.4174,140.4409,94.6752C387.4932,935.1802,445.368,946.87,504.9999,946.87
			c59.6302,0,117.5035-11.6898,172.012-34.7448c52.6237-22.2578,99.8739-54.1111,140.438-94.6755
			c40.5641-40.5641,72.4176-87.8143,94.6752-140.438c23.055-54.5084,34.7448-112.3815,34.7448-172.0117
			c0-59.6322-11.6898-117.5067-34.7446-172.0163c-22.2576-52.6248-54.1111-99.8759-94.6752-140.4407
			c-40.5641-40.5648-87.8144-72.4185-140.4383-94.6763C622.5037,74.8115,564.6304,63.1218,504.9999,63.1218L504.9999,63.1218z"/>
	</g>
</g>
</svg>
