<?xml version="1.0" encoding="utf-8"?>
<!-- Generator: Adobe Illustrator 17.1.0, SVG Export Plug-In . SVG Version: 6.00 Build 0)  -->
<!DOCTYPE svg PUBLIC "-//W3C//DTD SVG 1.1//EN" "http://www.w3.org/Graphics/SVG/1.1/DTD/svg11.dtd">
<svg version="1.1" id="Photos-Cameras" xmlns="http://www.w3.org/2000/svg" xmlns:xlink="http://www.w3.org/1999/xlink" x="0px"
	 y="0px" viewBox="0 0 1010 1010" enable-background="new 0 0 1010 1010" xml:space="preserve">
<linearGradient id="photos-cameras-label_1_" gradientUnits="userSpaceOnUse" x1="505" y1="1010" x2="505" y2="-1.318949e-08">
	<stop  offset="0" style="stop-color:#E6E6E6"/>
	<stop  offset="1" style="stop-color:#FFFFFF"/>
</linearGradient>
<path id="photos-cameras-label" fill="url(#photos-cameras-label_1_)" d="M798.7822,1010h-587.556
	C94.7637,1010,0,915.2451,0,798.791V211.2134C0,94.7549,94.7637,0,211.2261,0h587.556C915.2539,0,1010,94.7549,1010,211.2134
	V798.791C1010,915.2451,915.2539,1010,798.7822,1010z"/>
<g id="photos-cameras-photos-cameras">
	<g>
		<path fill="#2DCCD4" d="M505,925.833L505,925.833c-74.3711,0-134.6719-60.3096-134.6719-134.6797V673.333
			c0-74.3701,60.3008-134.6797,134.6719-134.6797l0,0c74.3711,0,134.6631,60.3096,134.6631,134.6797v117.8203
			C639.6631,865.5234,579.3711,925.833,505,925.833z"/>
		<linearGradient id="SVGID_1_" gradientUnits="userSpaceOnUse" x1="538.6699" y1="504.9937" x2="925.834" y2="504.9937">
			<stop  offset="0" style="stop-color:#96CD68"/>
			<stop  offset="1" style="stop-color:#C7DC4A"/>
		</linearGradient>
		<path fill="url(#SVGID_1_)" d="M925.834,504.9912L925.834,504.9912c0,74.3799-60.293,134.6719-134.6807,134.6719H673.334
			c-74.3711,0-134.6641-60.292-134.6641-134.6719l0,0c0-74.3706,60.293-134.667,134.6641-134.667h117.8193
			C865.541,370.3242,925.834,430.6206,925.834,504.9912z"/>
		<path fill="#FFA400" d="M505,84.1748L505,84.1748c74.3711,0,134.6631,60.2803,134.6631,134.6509v117.8408
			c0,74.3706-60.292,134.6675-134.6631,134.6675l0,0c-74.3711,0-134.6719-60.2969-134.6719-134.6675V218.8257
			C370.3281,144.4551,430.6289,84.1748,505,84.1748z"/>
		<path fill="#DE7891" d="M84.167,504.9912L84.167,504.9912c0-74.3706,60.3008-134.667,134.6714-134.667H336.667
			c74.3789,0,134.6631,60.2964,134.6631,134.667l0,0c0,74.3799-60.2842,134.6719-134.6631,134.6719H218.8384
			C144.4678,639.6631,84.167,579.3711,84.167,504.9912z"/>
		<path fill="#6EBDBC" d="M802.5674,802.5674L802.5674,802.5674c-52.5869,52.5879-137.8496,52.5879-190.4365,0l-83.3243-83.3067
			c-52.5869-52.6045-52.5869-137.8837,0-190.4541l0,0c52.5879-52.5996,137.8497-52.5996,190.4541,0l83.3067,83.3067
			C855.1631,664.7178,855.1631,749.9883,802.5674,802.5674z"/>
		<linearGradient id="SVGID_2_" gradientUnits="userSpaceOnUse" x1="528.8078" y1="481.1902" x2="802.575" y2="207.4231">
			<stop  offset="0" style="stop-color:#E2E037"/>
			<stop  offset="1" style="stop-color:#FAE528"/>
		</linearGradient>
		<path fill="url(#SVGID_2_)" d="M802.5674,207.4155L802.5674,207.4155c52.5957,52.5874,52.5957,137.8667,0,190.4541
			l-83.3067,83.3194c-52.6044,52.5913-137.8662,52.5913-190.4541,0l0,0c-52.5869-52.5874-52.5869-137.8501,0-190.4458
			l83.3243-83.3277C664.7178,154.8369,749.9805,154.8369,802.5674,207.4155z"/>
		<linearGradient id="SVGID_3_" gradientUnits="userSpaceOnUse" x1="481.1953" y1="481.187" x2="207.4238" y2="207.4155">
			<stop  offset="0" style="stop-color:#FF2C55"/>
			<stop  offset="1" style="stop-color:#FF4166"/>
		</linearGradient>
		<path fill="url(#SVGID_3_)" d="M207.4238,207.4155L207.4238,207.4155c52.6045-52.5786,137.8584-52.5786,190.4541,0
			l83.3155,83.3277c52.5869,52.5957,52.5869,137.8584,0,190.4458l0,0c-52.5874,52.5913-137.8584,52.5913-190.4375,0
			l-83.3321-83.3194C154.8369,345.2822,154.8369,260.0029,207.4238,207.4155z"/>
		<path fill="#9B8DC2" d="M207.4238,802.5674L207.4238,802.5674c-52.5869-52.5791-52.5869-137.8496,0-190.4541l83.3321-83.3067
			c52.5791-52.5996,137.8501-52.5996,190.4375,0l0,0c52.5869,52.5704,52.5869,137.8496,0,190.4541l-83.3155,83.3067
			C345.2822,855.1553,260.0283,855.1553,207.4238,802.5674z"/>
		<g opacity="0.75">
			<path fill="#2DCCD4" d="M633.7285,633.7119c-13.0587-42.5049-46.6104-76.0322-89.1152-89.1074
				C557.6797,587.1182,591.2148,620.6533,633.7285,633.7119z"/>
			<linearGradient id="SVGID_4_" gradientUnits="userSpaceOnUse" x1="538.6707" y1="589.1582" x2="925.8397" y2="589.1582">
				<stop  offset="0" style="stop-color:#96CD68"/>
				<stop  offset="1" style="stop-color:#C7DC4A"/>
			</linearGradient>
			<path fill="url(#SVGID_4_)" d="M633.7285,633.7119c-13.0587-42.5049-46.6104-76.0322-89.1152-89.1074
				C557.6797,587.1182,591.2148,620.6533,633.7285,633.7119z"/>
			<path fill="#6EBDBC" d="M633.7285,633.7119c-13.0587-42.5049-46.6104-76.0322-89.1152-89.1074
				C557.6797,587.1182,591.2148,620.6533,633.7285,633.7119z"/>
			<linearGradient id="SVGID_5_" gradientUnits="userSpaceOnUse" x1="538.6707" y1="420.833" x2="925.8397" y2="420.833">
				<stop  offset="0" style="stop-color:#96CD68"/>
				<stop  offset="1" style="stop-color:#C7DC4A"/>
			</linearGradient>
			<path fill="url(#SVGID_5_)" d="M633.7285,376.2754c-42.5137,13.0713-76.0488,46.5898-89.1152,89.1152
				C587.1182,452.3198,620.6699,418.7847,633.7285,376.2754z"/>
			<path fill="#FFA400" d="M633.7285,376.2754c-42.5137,13.0713-76.0488,46.5898-89.1152,89.1152
				C587.1182,452.3198,620.6699,418.7847,633.7285,376.2754z"/>
			<linearGradient id="SVGID_6_" gradientUnits="userSpaceOnUse" x1="528.8083" y1="481.1925" x2="802.5782" y2="207.4226">
				<stop  offset="0" style="stop-color:#E2E037"/>
				<stop  offset="1" style="stop-color:#FAE528"/>
			</linearGradient>
			<path fill="url(#SVGID_6_)" d="M633.7285,376.2754c-42.5137,13.0713-76.0488,46.5898-89.1152,89.1152
				C587.1182,452.3198,620.6699,418.7847,633.7285,376.2754z"/>
			<linearGradient id="SVGID_7_" gradientUnits="userSpaceOnUse" x1="538.671" y1="504.9962" x2="925.8207" y2="504.9962">
				<stop  offset="0" style="stop-color:#96CD68"/>
				<stop  offset="1" style="stop-color:#C7DC4A"/>
			</linearGradient>
			<path fill="url(#SVGID_7_)" d="M561.0186,504.9912c39.2928,20.8311,86.7119,20.8311,126.0224,0
				C647.7305,484.1733,600.3115,484.1733,561.0186,504.9912z"/>
			<path fill="#6EBDBC" d="M561.0186,504.9912c39.2928,20.8311,86.7119,20.8311,126.0224,0
				C647.7305,484.1733,600.3115,484.1733,561.0186,504.9912z"/>
			<linearGradient id="SVGID_8_" gradientUnits="userSpaceOnUse" x1="588.3228" y1="540.6982" x2="862.0787" y2="266.9423">
				<stop  offset="0" style="stop-color:#E2E037"/>
				<stop  offset="1" style="stop-color:#FAE528"/>
			</linearGradient>
			<path fill="url(#SVGID_8_)" d="M561.0186,504.9912c39.2928,20.8311,86.7119,20.8311,126.0224,0
				C647.7305,484.1733,600.3115,484.1733,561.0186,504.9912z"/>
			<path fill="#FFA400" d="M376.2803,376.2754c13.0664,42.5093,46.6015,76.0444,89.1152,89.1152
				C452.3281,422.8652,418.793,389.3467,376.2803,376.2754z"/>
			<path fill="#DE7891" d="M376.2803,376.2754c13.0664,42.5093,46.6015,76.0444,89.1152,89.1152
				C452.3281,422.8652,418.793,389.3467,376.2803,376.2754z"/>
			<linearGradient id="SVGID_9_" gradientUnits="userSpaceOnUse" x1="481.2002" y1="481.1927" x2="207.4303" y2="207.4229">
				<stop  offset="0" style="stop-color:#FF2C55"/>
				<stop  offset="1" style="stop-color:#FF4166"/>
			</linearGradient>
			<path fill="url(#SVGID_9_)" d="M376.2803,376.2754c13.0664,42.5093,46.6015,76.0444,89.1152,89.1152
				C452.3281,422.8652,418.793,389.3467,376.2803,376.2754z"/>
			<path fill="#FFA400" d="M505,322.9507c-20.814,39.3013-20.814,86.7295,0,126.0351
				C525.8311,409.6802,525.8311,362.252,505,322.9507z"/>
			<linearGradient id="SVGID_10_" gradientUnits="userSpaceOnUse" x1="469.2893" y1="421.6789" x2="743.0729" y2="147.8954">
				<stop  offset="0" style="stop-color:#E2E037"/>
				<stop  offset="1" style="stop-color:#FAE528"/>
			</linearGradient>
			<path fill="url(#SVGID_10_)" d="M505,322.9507c-20.814,39.3013-20.814,86.7295,0,126.0351
				C525.8311,409.6802,525.8311,362.252,505,322.9507z"/>
			<linearGradient id="SVGID_11_" gradientUnits="userSpaceOnUse" x1="540.7106" y1="421.6789" x2="266.9271" y2="147.8954">
				<stop  offset="0" style="stop-color:#FF2C55"/>
				<stop  offset="1" style="stop-color:#FF4166"/>
			</linearGradient>
			<path fill="url(#SVGID_11_)" d="M505,322.9507c-20.814,39.3013-20.814,86.7295,0,126.0351
				C525.8311,409.6802,525.8311,362.252,505,322.9507z"/>
			<path fill="#2DCCD4" d="M376.2803,633.7119c42.5127-13.0586,76.0478-46.5937,89.1152-89.1074
				C422.8818,557.6797,389.3467,591.207,376.2803,633.7119z"/>
			<path fill="#DE7891" d="M376.2803,633.7119c42.5127-13.0586,76.0478-46.5937,89.1152-89.1074
				C422.8818,557.6797,389.3467,591.207,376.2803,633.7119z"/>
			<path fill="#9B8DC2" d="M376.2803,633.7119c42.5127-13.0586,76.0478-46.5937,89.1152-89.1074
				C422.8818,557.6797,389.3467,591.207,376.2803,633.7119z"/>
			<path fill="#2DCCD4" d="M505,687.041c20.8311-39.3105,20.8311-86.7295,0-126.0312C484.186,600.3115,484.186,647.7305,505,687.041
				z"/>
			<path fill="#6EBDBC" d="M505,687.041c20.8311-39.3105,20.8311-86.7295,0-126.0312C484.186,600.3115,484.186,647.7305,505,687.041
				z"/>
			<path fill="#9B8DC2" d="M505,687.041c20.8311-39.3105,20.8311-86.7295,0-126.0312C484.186,600.3115,484.186,647.7305,505,687.041
				z"/>
			<path fill="#DE7891" d="M322.9507,504.9912c39.3183,20.8311,86.7378,20.8311,126.0395,0
				C409.6885,484.1733,362.269,484.1733,322.9507,504.9912z"/>
			<linearGradient id="SVGID_12_" gradientUnits="userSpaceOnUse" x1="421.6823" y1="540.7031" x2="147.8893" y2="266.91">
				<stop  offset="0" style="stop-color:#FF2C55"/>
				<stop  offset="1" style="stop-color:#FF4166"/>
			</linearGradient>
			<path fill="url(#SVGID_12_)" d="M322.9507,504.9912c39.3183,20.8311,86.7378,20.8311,126.0395,0
				C409.6885,484.1733,362.269,484.1733,322.9507,504.9912z"/>
			<path fill="#9B8DC2" d="M322.9507,504.9912c39.3183,20.8311,86.7378,20.8311,126.0395,0
				C409.6885,484.1733,362.269,484.1733,322.9507,504.9912z"/>
		</g>
	</g>
</g>
</svg>
