<?xml version="1.0" encoding="utf-8"?>
<!-- Generator: Adobe Illustrator 17.1.0, SVG Export Plug-In . SVG Version: 6.00 Build 0)  -->
<!DOCTYPE svg PUBLIC "-//W3C//DTD SVG 1.1//EN" "http://www.w3.org/Graphics/SVG/1.1/DTD/svg11.dtd">
<svg version="1.1" id="Safari" xmlns="http://www.w3.org/2000/svg" xmlns:xlink="http://www.w3.org/1999/xlink" x="0px" y="0px"
	 viewBox="0 0 1010 1010" enable-background="new 0 0 1010 1010" xml:space="preserve">
<linearGradient id="safari-back_1_" gradientUnits="userSpaceOnUse" x1="505" y1="1010" x2="505" y2="-1.257285e-08">
	<stop  offset="0" style="stop-color:#E6E6E6"/>
	<stop  offset="1" style="stop-color:#FFFFFF"/>
</linearGradient>
<path id="safari-back" fill="url(#safari-back_1_)" d="M1010,783.4561C1010,908.0625,908.7705,1010,785.0664,1010H224.9463
	C101.2124,1010,0,908.0625,0,783.4561V226.5435C0,101.9458,101.2124,0,224.9463,0h560.1201C908.7705,0,1010,101.9458,1010,226.5435
	V783.4561z"/>
<g id="safari-safari">
	<linearGradient id="SVGID_1_" gradientUnits="userSpaceOnUse" x1="504.9975" y1="935.8311" x2="504.9975" y2="74.1729">
		<stop  offset="0" style="stop-color:#2769F1"/>
		<stop  offset="1" style="stop-color:#02ADEF"/>
	</linearGradient>
	<path fill="url(#SVGID_1_)" d="M934.2461,505c0,237.9326-192.1816,430.8311-429.2461,430.8311S75.749,742.9326,75.749,505
		C75.749,267.0586,267.9355,74.1729,505,74.1729S934.2461,267.0586,934.2461,505z"/>
	<g>
		<g>
			<polygon fill="#FFFFFF" points="441.5928,827.1328 454.04,829.3252 440.8296,903.915 428.4033,901.7227 			"/>
			<polygon fill="#FFFFFF" points="569.1699,106.0723 581.5967,108.2812 568.3867,182.8672 555.9775,180.6543 			"/>
		</g>
		<g>
			<polygon fill="#FFFFFF" points="386.6323,811.2334 398.498,815.5498 372.5498,886.7178 360.6885,882.3926 			"/>
			<polygon fill="#FFFFFF" points="637.4551,123.2744 649.3076,127.6074 623.3516,198.7617 611.5156,194.4287 			"/>
		</g>
		<g>
			<polygon fill="#FFFFFF" points="335.2588,786.0361 346.2095,792.3506 308.291,857.9199 297.3696,851.6143 			"/>
			<polygon fill="#FFFFFF" points="701.709,152.0674 712.6348,158.3857 674.7158,223.9551 663.8154,217.6416 			"/>
		</g>
		<g>
			<polygon fill="#FFFFFF" points="289.0488,752.2988 298.731,760.417 250.0088,818.416 240.3437,810.3066 			"/>
			<polygon fill="#FFFFFF" points="759.9951,191.5791 769.665,199.7061 720.9385,257.6929 711.2861,249.5747 			"/>
		</g>
		<g>
			<polygon fill="#FFFFFF" points="249.3892,711.0498 257.5205,720.7275 199.4575,769.3867 191.356,759.7168 			"/>
			<polygon fill="#FFFFFF" points="810.543,240.605 818.6523,250.291 760.6025,298.9414 752.501,289.2725 			"/>
		</g>
		<g>
			<polygon fill="#FFFFFF" points="217.498,663.5459 223.8208,674.4795 158.1963,712.3311 151.8862,701.3887 			"/>
			<polygon fill="#FFFFFF" points="851.7998,297.6729 858.1143,308.6152 792.4854,346.4375 786.1963,335.5156 			"/>
		</g>
		<g>
			<polygon fill="#FFFFFF" points="194.3447,611.2197 198.6694,623.0977 127.4727,648.9697 123.1475,637.1006 			"/>
			<polygon fill="#FFFFFF" points="882.5361,361.0298 886.8525,372.9082 815.6514,398.7632 811.3438,386.9102 			"/>
		</g>
		<g>
			<polygon fill="#FFFFFF" points="180.6201,555.6738 182.8164,568.1162 108.2051,581.2422 106.022,568.7988 			"/>
			<polygon fill="#FFFFFF" points="901.791,428.7661 903.9824,441.209 829.375,454.3096 827.1924,441.8916 			"/>
		</g>
		<g>
			<polygon fill="#FFFFFF" points="176.7466,498.5801 176.7466,511.2217 100.9976,511.1963 100.9976,498.5635 			"/>
			<polygon fill="#FFFFFF" points="908.998,498.8125 908.998,511.4453 833.2539,511.3945 833.2539,498.7871 			"/>
		</g>
		<g>
			<polygon fill="#FFFFFF" points="182.8457,441.6934 180.6543,454.1367 106.0513,440.9648 108.2559,428.5176 			"/>
			<polygon fill="#FFFFFF" points="903.9316,569.0439 901.7402,581.4951 827.1504,568.293 829.3506,555.8672 			"/>
		</g>
		<g>
			
				<rect x="154.6658" y="341.8178" transform="matrix(0.3422 -0.9396 0.9396 0.3422 -250.8777 401.0188)" fill="#FFFFFF" width="12.637" height="75.7565"/>
			<polygon fill="#FFFFFF" points="886.751,637.3369 882.4355,649.2061 811.2676,623.2578 815.5918,611.4053 			"/>
		</g>
		<g>
			<polygon fill="#FFFFFF" points="223.9175,335.3516 217.5991,346.2939 152.0083,308.4004 158.3184,297.458 			"/>
			<polygon fill="#FFFFFF" points="857.9873,701.5996 851.665,712.5508 786.0869,674.6396 792.4004,663.7148 			"/>
		</g>
		<g>
			
				<rect x="218.2546" y="231.7427" transform="matrix(0.6428 -0.766 0.766 0.6428 -126.3169 268.3113)" fill="#FFFFFF" width="12.6284" height="75.7412"/>
			<polygon fill="#FFFFFF" points="818.501,759.8945 810.374,769.5801 752.3574,720.8623 760.4844,711.21 			"/>
		</g>
		<g>
			<polygon fill="#FFFFFF" points="298.8784,249.4565 289.1963,257.5791 240.5205,199.542 250.1904,191.4238 			"/>
			<polygon fill="#FFFFFF" points="769.4883,810.458 759.8018,818.5762 711.126,760.5352 720.7949,752.4248 			"/>
		</g>
		<g>
			<polygon fill="#FFFFFF" points="346.374,217.5527 335.4316,223.8711 297.5635,158.2637 308.4971,151.9453 			"/>
			<polygon fill="#FFFFFF" points="712.4326,851.7324 701.4902,858.0547 663.6387,792.4346 674.5645,786.1367 			"/>
		</g>
		<g>
			<polygon fill="#FFFFFF" points="398.6787,194.3828 386.8135,198.6943 360.9204,127.5146 372.7813,123.1943 			"/>
			<polygon fill="#FFFFFF" points="649.0879,882.4854 637.2188,886.8018 611.3213,815.6172 623.1738,811.3008 			"/>
		</g>
		<g>
			<polygon fill="#FFFFFF" points="454.2256,180.6372 441.791,182.833 428.6396,108.2344 441.0742,106.0386 			"/>
			<polygon fill="#FFFFFF" points="581.3604,901.7656 568.918,903.9658 555.7666,829.3584 568.209,827.167 			"/>
		</g>
		<g>
			<rect x="498.6855" y="101.002" fill="#FFFFFF" width="12.625" height="75.749"/>
			<rect x="498.6855" y="833.2529" fill="#FFFFFF" width="12.625" height="75.7451"/>
		</g>
	</g>
	<g>
		<g>
			<polygon fill="#FFFFFF" points="467.2119,869.2246 479.7725,870.2949 476.5527,908.0371 463.9492,906.9492 			"/>
			<polygon fill="#FFFFFF" points="533.4268,101.9287 546.0215,103.0122 542.7422,140.7666 530.1895,139.6792 			"/>
		</g>
		<g>
			<polygon fill="#FFFFFF" points="435.603,864.5459 448.0205,866.7041 441.521,904.0332 429.0615,901.8408 			"/>
			<polygon fill="#FFFFFF" points="568.4619,105.9414 580.9141,108.125 574.3555,145.4414 561.9375,143.2705 			"/>
		</g>
		<g>
			<polygon fill="#FFFFFF" points="404.5166,857.1279 416.707,860.3564 406.9658,896.9766 394.7422,893.7148 			"/>
			<polygon fill="#FFFFFF" points="603.0088,112.9932 615.2324,116.2559 605.4375,152.8643 593.2637,149.6182 			"/>
		</g>
		<g>
			<polygon fill="#FFFFFF" points="374.1934,847.0283 386.0547,851.3105 373.1694,886.9365 361.2744,882.6201 			"/>
			<polygon fill="#FFFFFF" points="636.8223,123.0381 648.7002,127.3501 635.7598,162.959 623.916,158.668 			"/>
		</g>
		<g>
			<polygon fill="#FFFFFF" points="344.8779,834.3154 356.3174,839.6182 340.3633,873.9883 328.8984,868.6514 			"/>
			<polygon fill="#FFFFFF" points="669.624,135.9824 681.0811,141.3145 665.0889,175.6631 653.6572,170.3564 			"/>
		</g>
		<g>
			<polygon fill="#FFFFFF" points="316.7759,819.1074 327.7056,825.3799 308.8179,858.2402 297.8628,851.918 			"/>
			<polygon fill="#FFFFFF" points="701.1699,151.7471 712.1211,158.0566 693.1953,190.8799 682.2695,184.5908 			"/>
		</g>
		<g>
			<polygon fill="#FFFFFF" points="290.1025,801.4971 300.4507,808.7051 278.7686,839.7783 268.4033,832.5371 			"/>
			<polygon fill="#FFFFFF" points="731.2148,170.1924 741.5752,177.4424 719.8682,208.4863 709.5322,201.2695 			"/>
		</g>
		<g>
			<polygon fill="#FFFFFF" points="265.0737,781.627 274.7471,789.7197 250.4434,818.7871 240.7441,810.6602 			"/>
			<polygon fill="#FFFFFF" points="759.5566,191.1914 769.2344,199.3145 744.8965,228.3433 735.2441,220.2549 			"/>
		</g>
		<g>
			<polygon fill="#FFFFFF" points="241.8613,759.6582 250.7969,768.5605 224.0527,795.3936 215.0996,786.457 			"/>
			<polygon fill="#FFFFFF" points="785.9434,214.585 794.8789,223.5171 768.1055,250.3125 759.1855,241.4185 			"/>
		</g>
		<g>
			<polygon fill="#FFFFFF" points="220.6636,735.75 228.7861,745.4023 199.8032,769.791 191.668,760.1133 			"/>
			<polygon fill="#FFFFFF" points="810.1885,240.1875 818.3242,249.8613 789.3066,274.2246 781.2051,264.5801 			"/>
		</g>
		<g>
			<polygon fill="#FFFFFF" points="201.6284,710.0801 208.8779,720.4072 177.8848,742.1738 170.6182,731.8213 			"/>
			<polygon fill="#FFFFFF" points="832.124,267.8135 839.374,278.1528 808.3418,299.8945 801.1094,289.584 			"/>
		</g>
		<g>
			<polygon fill="#FFFFFF" points="184.9028,682.8506 191.2212,693.7676 158.4448,712.7441 152.1138,701.8105 			"/>
			<polygon fill="#FFFFFF" points="851.5469,297.2388 857.8691,308.1685 825.0762,327.124 818.7705,316.2236 			"/>
		</g>
		<g>
			<polygon fill="#FFFFFF" points="170.6094,654.2646 175.9585,665.6875 141.6519,681.7461 136.2988,670.29 			"/>
			<polygon fill="#FFFFFF" points="868.3398,328.2407 873.6846,339.6934 839.3652,355.7104 834.0293,344.3047 			"/>
		</g>
		<g>
			<polygon fill="#FFFFFF" points="158.8706,624.5391 163.2036,636.3926 127.6284,649.3916 123.291,637.5137 			"/>
			<polygon fill="#FFFFFF" points="882.376,360.5996 886.7012,372.4609 851.1084,385.4307 846.7842,373.6035 			"/>
		</g>
		<g>
			<polygon fill="#FFFFFF" points="149.7661,593.9043 153.0537,606.0947 116.4756,615.9404 113.1875,603.7344 			"/>
			<polygon fill="#FFFFFF" points="893.5293,394.0547 896.7998,406.2534 860.2129,416.0659 856.9424,403.9014 			"/>
		</g>
		<g>
			<polygon fill="#FFFFFF" points="143.3672,562.6035 145.5723,575.0205 108.2812,581.6387 106.0684,569.1953 			"/>
			<polygon fill="#FFFFFF" points="901.7227,428.353 903.915,440.792 866.6201,447.3799 864.4111,434.9707 			"/>
		</g>
		<g>
			<polygon fill="#FFFFFF" points="139.7217,530.8467 140.8384,543.416 103.1094,546.7539 101.9922,534.168 			"/>
			<polygon fill="#FFFFFF" points="906.8994,463.2373 907.9951,475.8145 870.2705,479.1318 869.1406,466.5752 			"/>
		</g>
		<g>
			<polygon fill="#FFFFFF" points="138.8574,498.9004 138.874,511.5166 100.9976,511.5586 100.9893,498.9258 			"/>
			<polygon fill="#FFFFFF" points="909.0068,498.4326 909.0068,511.0654 871.1299,511.082 871.1045,498.4751 			"/>
		</g>
		<g>
			
				<rect x="115.0606" y="452.7125" transform="matrix(0.0865 -0.9963 0.9963 0.0865 -359.0081 551.7841)" fill="#FFFFFF" width="12.6254" height="37.8797"/>
			<polygon fill="#FFFFFF" points="908.0371,533.6875 906.9326,546.2734 869.208,542.9863 870.2871,530.4258 			"/>
		</g>
		<g>
			<polygon fill="#FFFFFF" points="145.4917,435.3921 143.3042,447.8267 105.9966,441.2764 108.1841,428.8379 			"/>
			<polygon fill="#FFFFFF" points="903.999,568.7148 901.8076,581.1582 864.5127,574.5996 866.6709,562.1738 			"/>
		</g>
		<g>
			
				<rect x="126.6868" y="386.582" transform="matrix(0.2583 -0.9661 0.9661 0.2583 -293.113 429.2418)" fill="#FFFFFF" width="12.6274" height="37.8756"/>
			<polygon fill="#FFFFFF" points="896.918,603.2617 893.6465,615.4687 857.0684,605.6729 860.3145,593.4912 			"/>
		</g>
		<g>
			
				<rect x="136.778" y="354.5226" transform="matrix(0.3412 -0.94 0.94 0.3412 -256.7839 380.5505)" fill="#FFFFFF" width="12.6273" height="37.8831"/>
			<polygon fill="#FFFFFF" points="886.8691,637.0664 882.5361,648.9365 846.9443,635.9873 851.2432,624.1348 			"/>
		</g>
		<g>
			<polygon fill="#FFFFFF" points="175.7686,344.6797 170.4453,356.1318 136.105,340.144 141.4287,328.6914 			"/>
			<polygon fill="#FFFFFF" points="873.8955,669.8604 868.5508,681.3086 834.2314,665.3076 839.542,653.8682 			"/>
		</g>
		<g>
			<polygon fill="#FFFFFF" points="191.002,316.5859 184.6963,327.5283 151.8862,308.6069 158.1875,297.6646 			"/>
			<polygon fill="#FFFFFF" points="858.1143,701.3887 851.791,712.3311 818.998,693.3975 825.2949,682.4717 			"/>
		</g>
		<g>
			<polygon fill="#FFFFFF" points="208.6211,289.9297 201.3882,300.2695 170.3525,278.5703 177.5854,268.2222 			"/>
			<polygon fill="#FFFFFF" points="839.6436,731.4336 832.3936,741.7861 801.3711,720.0615 808.6035,709.7178 			"/>
		</g>
		<g>
			<polygon fill="#FFFFFF" points="228.4995,264.9092 220.3936,274.5869 191.3687,250.2578 199.4746,240.5713 			"/>
			<polygon fill="#FFFFFF" points="818.627,759.751 810.5088,769.4199 781.4922,745.082 789.5938,735.4131 			"/>
		</g>
		<g>
			<polygon fill="#FFFFFF" points="250.4854,241.7178 241.5664,250.6494 214.771,223.8799 223.6982,214.9434 			"/>
			<polygon fill="#FFFFFF" points="795.2168,786.1289 786.2803,795.0566 759.5059,768.2734 768.4258,759.3545 			"/>
		</g>
		<g>
			<polygon fill="#FFFFFF" points="274.4102,220.5327 264.7451,228.6465 240.3901,199.6426 250.0552,191.5205 			"/>
			<polygon fill="#FFFFFF" points="769.5977,810.3574 759.9277,818.4834 735.582,789.4668 745.2422,781.3574 			"/>
		</g>
		<g>
			<polygon fill="#FFFFFF" points="300.0884,201.5146 289.7568,208.7559 268.0156,177.7373 278.3555,170.4873 			"/>
			<polygon fill="#FFFFFF" points="741.9629,832.2588 731.6191,839.5088 709.9033,808.4854 720.2305,801.2441 			"/>
		</g>
		<g>
			<polygon fill="#FFFFFF" points="327.3262,184.8057 316.4048,191.1157 297.458,158.3223 308.3921,152 			"/>
			<polygon fill="#FFFFFF" points="712.5332,851.6816 701.5996,858.0039 682.6572,825.1943 693.582,818.8887 			"/>
		</g>
		<g>
			<polygon fill="#FFFFFF" points="355.9209,170.5381 344.4897,175.8701 328.4683,141.5464 339.9121,136.2061 			"/>
			<polygon fill="#FFFFFF" points="681.5107,868.458 670.0625,873.7939 654.0625,839.458 665.4932,834.1299 			"/>
		</g>
		<g>
			<polygon fill="#FFFFFF" points="385.6543,158.8071 373.793,163.1318 360.832,127.54 372.6973,123.2148 			"/>
			<polygon fill="#FFFFFF" points="649.1563,882.46 637.2861,886.7852 624.3379,851.1846 636.1904,846.8682 			"/>
		</g>
		<g>
			<polygon fill="#FFFFFF" points="416.2939,149.7236 404.0952,152.9863 394.291,116.4033 406.4893,113.1411 			"/>
			<polygon fill="#FFFFFF" points="615.6875,893.5879 603.4893,896.8594 593.6934,860.2803 605.8838,857.0098 			"/>
		</g>
		<g>
			<polygon fill="#FFFFFF" points="447.6118,143.3379 435.1729,145.5342 428.5977,108.2344 441.0278,106.0386 			"/>
			<polygon fill="#FFFFFF" points="581.3945,901.7568 568.9512,903.9482 562.376,866.6533 574.8018,864.4619 			"/>
		</g>
		<g>
			<polygon fill="#FFFFFF" points="479.3643,139.7129 466.7778,140.813 463.4814,103.0879 476.0596,101.9883 			"/>
			<polygon fill="#FFFFFF" points="546.5098,906.916 533.9238,908.0117 530.6279,870.2783 543.2051,869.1826 			"/>
		</g>
		<g>
			<rect x="498.6777" y="101.002" fill="#FFFFFF" width="12.6241" height="37.872"/>
			<rect x="498.6777" y="871.1211" fill="#FFFFFF" width="12.6241" height="37.8769"/>
		</g>
	</g>
	<g>
		<polygon fill="#FB121F" points="454.0566,458.7817 543.3154,548.0527 793.2773,208.8232 		"/>
		<polygon fill="#FFFFFF" points="454.0566,458.7817 543.3154,548.0527 204.0942,798.0234 		"/>
	</g>
</g>
</svg>
