<?xml version="1.0" encoding="utf-8"?>
<!-- Generator: Adobe Illustrator 17.1.0, SVG Export Plug-In . SVG Version: 6.00 Build 0)  -->
<!DOCTYPE svg PUBLIC "-//W3C//DTD SVG 1.1//EN" "http://www.w3.org/Graphics/SVG/1.1/DTD/svg11.dtd">
<svg version="1.1" id="Statics" xmlns="http://www.w3.org/2000/svg" xmlns:xlink="http://www.w3.org/1999/xlink" x="0px" y="0px"
	 viewBox="0 0 1010 1010" enable-background="new 0 0 1010 1010" xml:space="preserve">
<linearGradient id="statics-back_1_" gradientUnits="userSpaceOnUse" x1="505" y1="1010" x2="505" y2="-1.257285e-08">
	<stop  offset="0" style="stop-color:#E6E6E6"/>
	<stop  offset="1" style="stop-color:#FFFFFF"/>
</linearGradient>
<path id="statics-back" fill="url(#statics-back_1_)" d="M1010,783.4561C1010,908.0625,908.7705,1010,785.0664,1010H224.9463
	C101.2124,1010,0,908.0625,0,783.4561V226.5435C0,101.9375,101.2124,0,224.9463,0h560.1201C908.7705,0,1010,101.9375,1010,226.5435
	V783.4561z"/>
<g id="statics-statics">
	<polygon fill="#919191" points="199.7734,715.417 199.7734,709.3809 810.2227,709.3809 810.2227,715.417 199.7734,715.417 	"/>
	<linearGradient id="SVGID_1_" gradientUnits="userSpaceOnUse" x1="294.4907" y1="707.1465" x2="294.4907" y2="537.8105">
		<stop  offset="0" style="stop-color:#FF2C55"/>
		<stop  offset="1" style="stop-color:#FF4166"/>
	</linearGradient>
	<path fill="url(#SVGID_1_)" d="M240.0869,549.1914c0-6.2812,5.0791-11.3809,11.3677-11.3809h86.0889
		c6.2719,0,11.351,5.0997,11.351,11.3809V695.791c0,6.2471-5.0791,11.3555-11.351,11.3555h-86.0889
		c-6.2886,0-11.3677-5.1084-11.3677-11.3555V549.1914z"/>
	<linearGradient id="SVGID_2_" gradientUnits="userSpaceOnUse" x1="433.9043" y1="707.1465" x2="433.9043" y2="448.6777">
		<stop  offset="0" style="stop-color:#7B37E1"/>
		<stop  offset="1" style="stop-color:#5855D6"/>
	</linearGradient>
	<path fill="url(#SVGID_2_)" d="M379.5127,460.042c0-6.2803,5.0796-11.3643,11.3428-11.3643h86.0976
		c6.2886,0,11.3428,5.084,11.3428,11.3643v235.749c0,6.2471-5.0542,11.3555-11.3428,11.3555h-86.0976
		c-6.2632,0-11.3428-5.1084-11.3428-11.3555V460.042z"/>
	<linearGradient id="SVGID_3_" gradientUnits="userSpaceOnUse" x1="573.3096" y1="707.1465" x2="573.3096" y2="358.7617">
		<stop  offset="0" style="stop-color:#3AAA35"/>
		<stop  offset="1" style="stop-color:#6CDE66"/>
	</linearGradient>
	<path fill="url(#SVGID_3_)" d="M518.9102,370.1172c0-6.2637,5.0918-11.3555,11.3808-11.3555h86.0713
		c6.2725,0,11.3467,5.0918,11.3467,11.3555V695.791c0,6.2471-5.0742,11.3555-11.3467,11.3555H530.291
		c-6.289,0-11.3808-5.1084-11.3808-11.3555V370.1172z"/>
	<linearGradient id="SVGID_4_" gradientUnits="userSpaceOnUse" x1="712.7104" y1="707.1465" x2="712.7104" y2="294.583">
		<stop  offset="0" style="stop-color:#FFA400"/>
		<stop  offset="1" style="stop-color:#FFCF00"/>
	</linearGradient>
	<path fill="url(#SVGID_4_)" d="M658.3105,305.9385c0-6.2637,5.1006-11.3555,11.3809-11.3555h86.0977
		c6.2548,0,11.3214,5.0918,11.3214,11.3555V695.791c0,6.2471-5.0665,11.3555-11.3214,11.3555h-86.0977
		c-6.2803,0-11.3809-5.1084-11.3809-11.3555V305.9385z"/>
</g>
</svg>
