<?xml version="1.0" encoding="utf-8"?>
<!-- Generator: Adobe Illustrator 17.1.0, SVG Export Plug-In . SVG Version: 6.00 Build 0)  -->
<!DOCTYPE svg PUBLIC "-//W3C//DTD SVG 1.1//EN" "http://www.w3.org/Graphics/SVG/1.1/DTD/svg11.dtd">
<svg version="1.1" id="Wallpaper" xmlns="http://www.w3.org/2000/svg" xmlns:xlink="http://www.w3.org/1999/xlink" x="0px" y="0px"
	 viewBox="0 0 1010 1010" enable-background="new 0 0 1010 1010" xml:space="preserve">
<path id="wallpaper-back" fill="#438BF0" d="M1010,783.4561C1010,908.0625,908.7705,1010,785.0664,1010H224.9502
	C101.2124,1010,0,908.0625,0,783.4561V226.5435C0,101.9414,101.2124,0,224.9502,0h560.1162C908.7705,0,1010,101.9414,1010,226.5435
	V783.4561z"/>
<g id="wallpaper-wallpaper">
	<path fill="#FFFFFF" d="M777.6992,392.0488c18.5714-44.0478,9.9981-96.8838-25.8135-132.7207l-1.2226-1.2177
		c-35.8281-35.8199-88.6602-44.3848-132.7158-25.8174c-18.0069-44.2666-61.4219-75.5762-112.0791-75.5762h-1.7364
		c-50.6611,0-94.0722,31.3096-112.083,75.5762c-44.0434-18.5674-96.8838-10.0025-132.6953,25.8174l-1.2393,1.2177
		c-35.8155,35.8369-44.3677,88.6729-25.8169,132.7207c-44.2671,18.0069-75.5723,61.4219-75.5723,112.0786v1.7325
		c0,50.6655,31.3052,94.0805,75.5723,112.0874c-18.5508,44.0556-9.9986,96.8877,25.8169,132.7158l1.2393,1.2227
		c35.8115,35.8116,88.6519,44.3848,132.6953,25.8124c18.0108,44.2666,61.4219,75.5684,112.083,75.5684h1.7364
		c50.6572,0,94.0722-31.3018,112.0791-75.5684c44.0556,18.5723,96.8878,9.9991,132.7158-25.8124l1.2226-1.2227
		c35.8116-35.8281,44.3848-88.6602,25.8135-132.7158c44.2744-18.0069,75.5674-61.4219,75.5674-112.0874v-1.7325
		C853.2666,453.4707,821.9736,410.0557,777.6992,392.0488z M726.0215,282.7305l1.2392,1.2392
		c27.0108,27.0103,31.959,67.3272,15.6377,99.6782c-3.5312-0.312-7.0644-0.5522-10.6464-0.5522H626.8916V277.748
		c0-3.5825-0.2363-7.1274-0.54-10.6425C658.6992,250.7803,699.0195,255.7285,726.0215,282.7305z M529.625,652.7637l18.6055-43.3986
		l43.8359,17.5264v88.3057L529.625,652.7637z M505,621.8086l-10.8833-25.3926L505,592.0664l10.8828,4.3496L505,621.8086z
		 M480.3755,652.7637l-62.4419,62.4336v-88.3057l43.8369-17.5264L480.3755,652.7637z M480.3755,357.2363l-18.605,43.3985
		l-43.8369-17.5391v-88.3101L480.3755,357.2363z M505,388.1836l10.8828,25.3916L505,417.9292l0,0l0,0l-10.8833-4.354L505,388.1836z
		 M529.625,357.2363l62.4414-62.4507v88.3101l-43.8359,17.5391L529.625,357.2363z M443.4385,443.4346L443.4385,443.4346
		l-10.7818,4.6113l-10.2553-25.6445l25.6445,10.2509L443.4385,443.4346z M417.9336,505l-4.3545,10.875L388.1919,505l25.3872-10.8833
		L417.9336,505z M432.6567,561.9541l10.7818,4.6025l4.6074,10.7823l-25.6445,10.2597L432.6567,561.9541z M566.5654,566.5566
		l10.7735-4.6025l10.2597,25.6445l-25.6445-10.2597L566.5654,566.5566z M592.0664,505l4.3584-10.8833L621.8086,505l-25.3838,10.875
		L592.0664,505z M566.5654,443.4346L566.5654,443.4346l-4.6113-10.7823l25.6445-10.2509l-10.2597,25.6445L566.5654,443.4346z
		 M400.6387,461.7656l-43.3985,18.6055l-62.4292-62.4419h88.2935L400.6387,461.7656z M357.2402,529.625l43.3985,18.6045
		l-17.5342,43.8369h-88.3106L357.2402,529.625z M609.3652,548.2295l43.3985-18.6045l62.4336,62.4414h-88.3057L609.3652,548.2295z
		 M652.7637,480.3711l-43.3985-18.6055l17.5264-43.8364h88.3057L652.7637,480.3711z M504.1318,191.5498h1.7364
		c38.206,0,70.2148,25.0127,81.5449,59.4199c-2.7139,2.2764-5.3779,4.6031-7.9072,7.1407L505,332.6118l-74.4844-74.5014
		c-2.5503-2.5376-5.2016-4.8643-7.9077-7.1407C433.917,216.5625,465.939,191.5498,504.1318,191.5498z M282.7349,283.9697
		l1.2436-1.2392c27.0015-27.002,67.3233-31.9502,99.6694-15.625c-0.3076,3.5151-0.5434,7.06-0.5434,10.6425v105.3477H277.7524
		c-3.5869,0-7.1235,0.2402-10.643,0.5522C250.7803,351.2969,255.7285,310.98,282.7349,283.9697z M191.5542,505.8599v-1.7325
		c0-38.2138,25.0166-70.2192,59.4155-81.5366c2.2764,2.7188,4.6074,5.3662,7.1445,7.9077L332.6162,505l-74.502,74.4805
		c-2.5371,2.5547-4.8682,5.201-7.1445,7.9238C216.5708,576.083,191.5542,544.0742,191.5542,505.8599z M283.9785,727.2607
		l-1.2436-1.2392c-27.0064-27.002-31.9546-67.3233-15.6255-99.6778c3.5195,0.3116,7.0561,0.5479,10.643,0.5479h105.3521V732.252
		c0,3.582,0.2358,7.1152,0.5434,10.6386C351.3018,759.2197,310.98,754.2715,283.9785,727.2607z M505.8682,818.4414h-1.7364
		c-38.1928,0-70.2148-25.0117-81.5239-59.416c2.7061-2.2754,5.3574-4.6025,7.9077-7.1396L505,677.3799l74.5059,74.5059
		c2.5293,2.5371,5.1933,4.8643,7.9072,7.1396C576.083,793.4297,544.0742,818.4414,505.8682,818.4414z M727.2607,726.0215
		l-1.2392,1.2392c-27.002,27.0108-67.3223,31.959-99.6699,15.6299c0.3037-3.5234,0.54-7.0566,0.54-10.6386V626.8916H732.252
		c3.582,0,7.1152-0.2363,10.6464-0.5479C759.2197,658.6982,754.2715,699.0195,727.2607,726.0215z M818.4502,505.8599
		c0,38.2143-25.0205,70.2231-59.416,81.5444c-2.2764-2.7227-4.6026-5.3691-7.1485-7.9238L677.3799,505l74.5058-74.5015
		c2.5459-2.5415,4.8721-5.1889,7.1485-7.9077c34.3955,11.3174,59.416,43.3399,59.416,81.5366V505.8599z"/>
	<path fill="#438BF0" d="M557.2422,505c0,28.8564-23.3945,52.2422-52.2422,52.2422c-28.8437,0-52.2417-23.3858-52.2417-52.2422
		c0-28.8438,23.398-52.2461,52.2417-52.2461C533.8477,452.7539,557.2422,476.1562,557.2422,505z"/>
</g>
</svg>
